<?xml version="1.0" standalone="no"?>
<!DOCTYPE svg PUBLIC "-//W3C//DTD SVG 20010904//EN"
 "http://www.w3.org/TR/2001/REC-SVG-20010904/DTD/svg10.dtd">
<svg version="1.0" xmlns="http://www.w3.org/2000/svg"
 width="513.000000pt" height="513.000000pt" viewBox="0 0 513.000000 513.000000"
 preserveAspectRatio="xMidYMid meet">
<metadata>
Created by potrace 1.14, written by Peter Selinger 2001-2017
</metadata>
<g transform="translate(0.000000,513.000000) scale(0.100000,-0.100000)"
fill="#000000" stroke="none">
<path d="M2548 5102 c-28 -33 -126 -148 -153 -181 -11 -13 -24 -29 -30 -35 -5
-6 -46 -54 -90 -106 -44 -52 -82 -97 -85 -100 -3 -3 -30 -34 -60 -70 -30 -36
-59 -70 -65 -76 -5 -6 -19 -22 -30 -35 -67 -81 -171 -205 -175 -209 -5 -5 -89
-104 -127 -150 -42 -51 -148 -175 -153 -180 -3 -3 -41 -48 -85 -100 -44 -52
-82 -97 -85 -100 -3 -3 -27 -32 -55 -65 -27 -33 -54 -65 -60 -71 -5 -6 -28
-33 -50 -59 -22 -27 -45 -53 -50 -59 -6 -6 -33 -38 -60 -71 -28 -33 -52 -62
-55 -65 -3 -3 -66 -77 -140 -165 -119 -141 -213 -252 -365 -430 -23 -27 -55
-66 -71 -85 -16 -19 -31 -37 -34 -40 -21 -21 -70 -82 -70 -89 0 -9 101 -142
149 -195 116 -128 249 -253 366 -344 44 -34 85 -66 91 -71 5 -4 21 -14 35 -21
13 -7 26 -16 29 -20 6 -9 150 -94 240 -142 59 -31 121 -60 265 -123 17 -7 67
-25 113 -40 45 -15 82 -28 82 -29 0 -2 -11 -35 -24 -74 l-25 -72 235 0 234 0
0 25 c0 22 4 25 33 25 56 0 62 -11 31 -66 -125 -227 -320 -443 -569 -633 -268
-204 -583 -377 -975 -536 -114 -46 -377 -139 -425 -151 -16 -4 -34 -9 -40 -13
-5 -3 -14 -6 -20 -7 -5 -1 -55 -15 -109 -31 l-100 -28 1272 -3 c700 -1 1844
-1 2544 0 l1272 3 -104 29 c-213 59 -506 163 -725 258 -170 73 -476 227 -495
249 -3 3 -12 9 -20 12 -8 4 -28 16 -45 27 -16 11 -37 23 -45 27 -8 4 -60 38
-115 77 -319 222 -558 472 -689 721 -24 46 -25 50 -8 57 9 3 32 7 50 7 31 1
37 -6 33 -36 -2 -10 51 -13 234 -13 129 0 235 3 235 8 0 4 -9 31 -20 60 -27
70 -25 79 11 87 57 13 281 105 393 162 359 184 655 427 899 738 44 58 53 74
43 86 -17 24 -89 110 -106 128 -9 9 -49 56 -90 106 -76 91 -117 139 -135 159
-6 6 -107 126 -225 266 -118 140 -217 257 -220 260 -3 3 -53 61 -110 130 -58
69 -107 127 -110 130 -6 6 -186 218 -270 319 -30 36 -59 71 -65 77 -5 6 -28
32 -50 59 -22 26 -45 53 -50 59 -6 6 -33 38 -60 71 -28 33 -54 65 -60 71 -5 6
-29 33 -51 60 -264 312 -458 541 -505 596 l-57 66 -24 -26z"/>
</g>
</svg>
