<svg id="Layer_1" data-name="Layer 1" xmlns="http://www.w3.org/2000/svg" xmlns:xlink="http://www.w3.org/1999/xlink" viewBox="0 0 487.09 486.14"><defs><style>.cls-1{stroke:#201683;fill:url(#linear-gradient);}.cls-1,.cls-10,.cls-11,.cls-12,.cls-13,.cls-14,.cls-15,.cls-17,.cls-18,.cls-2,.cls-4,.cls-5,.cls-6,.cls-7,.cls-8,.cls-9{stroke-miterlimit:10;}.cls-1,.cls-17,.cls-6{stroke-width:9px;}.cls-16,.cls-2,.cls-6{fill:#fff;}.cls-2{stroke:#070808;stroke-width:8px;}.cls-3{fill:#a0a0a0;}.cls-4{stroke:#000;}.cls-5{stroke:#231f20;}.cls-6{stroke:#fff;}.cls-10,.cls-11,.cls-12,.cls-13,.cls-14,.cls-15,.cls-17,.cls-7,.cls-8,.cls-9{fill:none;}.cls-10,.cls-11,.cls-12,.cls-13,.cls-14,.cls-15,.cls-7,.cls-8,.cls-9{stroke-linecap:round;stroke-width:4px;}.cls-7{stroke:url(#linear-gradient-2);}.cls-8{stroke:url(#linear-gradient-3);}.cls-9{stroke:url(#linear-gradient-4);}.cls-10{stroke:#eea820;}.cls-11{stroke:url(#linear-gradient-5);}.cls-12{stroke:url(#linear-gradient-6);}.cls-13{stroke:url(#linear-gradient-7);}.cls-14{stroke:url(#linear-gradient-8);}.cls-15{stroke:#f15e2a;}.cls-17{stroke:#212121;}.cls-18{fill:#4b4199;stroke:#201b4f;stroke-width:6px;}.cls-19{fill:#201b4f;opacity:0.3;}.cls-20{opacity:0.7;}.cls-21{fill:#ccc;}.cls-22{fill:#605cb7;}</style><linearGradient id="linear-gradient" x1="241.49" y1="459.78" x2="246.01" y2="-17.34" gradientUnits="userSpaceOnUse"><stop offset="0.37" stop-color="#201683"/><stop offset="0.68" stop-color="#221881"/><stop offset="0.8" stop-color="#271f7c"/><stop offset="0.88" stop-color="#312a72"/><stop offset="0.94" stop-color="#3f3b65"/><stop offset="1" stop-color="#515153"/><stop offset="1" stop-color="#525252"/></linearGradient><linearGradient id="linear-gradient-2" x1="248.06" y1="477.09" x2="248.06" y2="417.57" gradientUnits="userSpaceOnUse"><stop offset="0" stop-color="#eea820"/><stop offset="1" stop-color="#f15e2a"/></linearGradient><linearGradient id="linear-gradient-3" x1="180.59" y1="477.65" x2="180.59" y2="418.13" xlink:href="#linear-gradient-2"/><linearGradient id="linear-gradient-4" x1="237.62" y1="477.65" x2="237.62" y2="418.13" xlink:href="#linear-gradient-2"/><linearGradient id="linear-gradient-5" x1="229.95" y1="520.32" x2="200.52" y2="499.52" gradientTransform="matrix(0.7, 0.71, -1, 0.99, 633.64, -210.92)" xlink:href="#linear-gradient-2"/><linearGradient id="linear-gradient-6" x1="378.8" y1="510.5" x2="349.37" y2="489.69" gradientTransform="matrix(0.7, -0.71, 1, 0.99, -480.24, 212.52)" gradientUnits="userSpaceOnUse"><stop offset="0.11" stop-color="#eea820"/><stop offset="1" stop-color="#f15e2a"/></linearGradient><linearGradient id="linear-gradient-7" x1="183.18" y1="554.62" x2="153.74" y2="533.82" gradientTransform="matrix(0.7, 0.71, -1, 0.99, 633.64, -210.92)" xlink:href="#linear-gradient-2"/><linearGradient id="linear-gradient-8" x1="331.04" y1="476.88" x2="301.6" y2="456.07" xlink:href="#linear-gradient-6"/></defs><title>astroicon1</title><ellipse class="cls-1" cx="243.55" cy="243.07" rx="239.05" ry="238.57"/><path class="cls-2" d="M408.36,413.67a119.67,119.67,0,0,0-13.77-54.55A117.45,117.45,0,0,0,358,317.84c-61.58-43.28-170.47-42.9-231.46.67a113.84,113.84,0,0,0-35.85,40.92,115.36,115.36,0,0,0-12.45,55.34c12.24,11.67,71.67,65.82,164.35,65.88C336.45,480.7,396.41,425.21,408.36,413.67Z" transform="translate(-0.05 0)"/><path class="cls-3" d="M425.66,160.77l1.09,14.51a33.15,33.15,0,0,1-30.59,35.49,3.16,3.16,0,0,1-3.38-2.92l-1.85-24.08a3.15,3.15,0,0,0,3,1.65l2.16-.16A33.11,33.11,0,0,0,425.66,160.77Z" transform="translate(-0.05 0)"/><path class="cls-4" d="M395.93,216.84a7.23,7.23,0,0,1-7.19-6.68l-6.81-90.74a7.22,7.22,0,0,1,6.66-7.74h0A37.19,37.19,0,0,1,428.46,146L430.77,177a37.23,37.23,0,0,1-34.32,39.87A4.52,4.52,0,0,1,395.93,216.84Zm-5.81-97.07,6.64,88.91A29.12,29.12,0,0,0,422.7,177.6l-2.31-30.94A29.08,29.08,0,0,0,390.12,119.77Z" transform="translate(-0.05 0)"/><path class="cls-3" d="M97.69,206.59l1.88,25.18a3.17,3.17,0,0,1-2.92,3.39,33.13,33.13,0,0,1-35.51-30.55v0l-1-13A33.17,33.17,0,0,0,91.7,208.75L95,208.5A3.19,3.19,0,0,0,97.69,206.59Z" transform="translate(-0.05 0)"/><path class="cls-5" d="M94.12,239.3a37.19,37.19,0,0,1-37-34.43L54.8,173.93a37.25,37.25,0,0,1,34.33-39.87,7.21,7.21,0,0,1,7.74,6.64v0l6.77,90.74A7.24,7.24,0,0,1,97,239.2C96,239.27,95.06,239.3,94.12,239.3Zm-5.31-97.07a29.13,29.13,0,0,0-25.94,31.09l2.31,30.94a29.08,29.08,0,0,0,30.27,26.89Z" transform="translate(-0.05 0)"/><circle class="cls-6" cx="242.75" cy="175.44" r="152.51"/><line class="cls-7" x1="248.06" y1="475.09" x2="248.06" y2="419.57"/><line class="cls-8" x1="180.59" y1="475.65" x2="180.59" y2="420.13"/><line class="cls-9" x1="237.62" y1="475.65" x2="237.62" y2="420.13"/><line class="cls-10" x1="236.1" y1="475.65" x2="180.59" y2="475.65"/><line class="cls-10" x1="304.21" y1="475.65" x2="248.69" y2="475.65"/><line class="cls-11" x1="249.14" y1="474.59" x2="304.5" y2="419.57"/><line class="cls-12" x1="303.61" y1="474.37" x2="248.06" y2="419.57"/><line class="cls-13" x1="181.96" y1="475.4" x2="237.32" y2="420.38"/><line class="cls-14" x1="236.43" y1="475.18" x2="180.88" y2="420.38"/><line class="cls-15" x1="303.59" y1="419.58" x2="248.08" y2="419.58"/><path class="cls-5" d="M242.79,334.56A159.14,159.14,0,0,1,83.68,176C83.37,88.27,154.5,16.63,242.23,16.32h.59A159.09,159.09,0,0,1,401.93,174.87h0A159.12,159.12,0,0,1,243.38,334.56h-.59Zm0-310.12h-.56C159,24.77,91.51,92.77,91.8,176a151,151,0,1,0,302-1.08h0a151,151,0,0,0-151-150.46Z" transform="translate(-0.05 0)"/><path class="cls-5" d="M99.57,120a4.08,4.08,0,0,1-4.06-4.08,4.13,4.13,0,0,1,.73-2.31C122.72,73.14,175.09,49.22,239.93,48c64.34-1.21,117.57,20,146,58.09a4.06,4.06,0,0,1-5.7,5.73l-.44-.34-.25-.37C352.76,75,301.92,55,240.11,56.12c-62.18,1.17-112.18,23.77-137.12,62l-.22.29A4,4,0,0,1,99.57,120Zm-.27-4.27.27.21Z" transform="translate(-0.05 0)"/><path class="cls-16" d="M392.76,120.3a28.53,28.53,0,0,1,11.52,3,28.92,28.92,0,0,1,9.59,7.86,30.24,30.24,0,0,1,6.22,18.51q.78,10.62,1.58,21.24a33,33,0,0,1-19.55,14.73,154.12,154.12,0,0,0-9.36-65.37Z" transform="translate(-0.05 0)"/><path class="cls-16" d="M86.35,143.2a28.71,28.71,0,0,0-9.07,3.47,29.26,29.26,0,0,0-10,10,30.62,30.62,0,0,0-3.32,8c-1.44,5.52-.78,9.11.27,21.14.22,2.63.57,6.81.92,12a34.95,34.95,0,0,0,21.3,10.4,159.48,159.48,0,0,1-.15-65Z" transform="translate(-0.05 0)"/><circle class="cls-17" cx="242.57" cy="242.57" r="238.07"/><path class="cls-18" d="M372.54,225.58c-25.58,51.67-96.72,52.55-128.23,52.94-32.76.4-100,1.23-127.61-48.17-23.2-41.57-12.25-102,20.59-129.45C154,87,181.41,86.23,235.64,85.28,296.4,84.22,326.78,83.69,346,99.19,378.93,125.83,393.25,183.72,372.54,225.58Z" transform="translate(-0.05 0)"/><path class="cls-19" d="M241.75,88.36l.18,8.76c46.54-2.69,87.24,21.75,100.36,58,12.7,35.13-5.47,67.51-8.69,73-27.84,47.56-86.33,48.17-89.29,48.15,18.52,2.06,45.74,2,74.58-9.77,12.43-5.07,27.35-11.15,40.19-26.31,19.13-22.59,19.84-49,20.09-58.3,0,0,1-35.76-21.7-66.26C349.2,104.52,341.71,99.74,338.81,98c-8.44-5-16-6.46-24-7.94-11.26-2.09-18.62-1.85-36.44-1.73C270.36,88.42,257.73,88.47,241.75,88.36Z" transform="translate(-0.05 0)"/><path class="cls-19" d="M129.17,110.48A47,47,0,0,1,150.71,95.1C156.55,93,161.5,92.25,170.78,91c8.9-1.22,17.52-1.9,33.9-2.35,9.57-.27,22.16-.47,37.08-.29q.09,4.4.17,8.79c-18-.89-32.87-.64-43.47-.22-22.74.92-34.37,1.47-47.31,5.91a76.19,76.19,0,0,0-28.93,17.49" transform="translate(-0.05 0)"/><g class="cls-20"><circle class="cls-21" cx="33.64" cy="244.41" r="1.84"/><circle class="cls-21" cx="51.64" cy="274.66" r="1.84"/><circle class="cls-21" cx="79.81" cy="255.47" r="1.84"/><circle class="cls-21" cx="34.33" cy="307.4" r="1.84"/><circle class="cls-21" cx="62.64" cy="307.41" r="1.84"/><circle class="cls-21" cx="80.64" cy="337.66" r="1.84"/><circle class="cls-21" cx="108.81" cy="318.47" r="1.84"/><circle class="cls-21" cx="63.33" cy="370.4" r="1.84"/></g><g class="cls-20"><circle class="cls-21" cx="459.21" cy="230.1" r="1.84"/><circle class="cls-21" cx="441.21" cy="260.35" r="1.84"/><circle class="cls-21" cx="413.04" cy="241.16" r="1.84"/><circle class="cls-21" cx="458.52" cy="293.09" r="1.84"/><circle class="cls-21" cx="430.21" cy="293.1" r="1.84"/><circle class="cls-21" cx="412.21" cy="323.35" r="1.84"/><circle class="cls-21" cx="384.04" cy="304.16" r="1.84"/><circle class="cls-21" cx="429.52" cy="356.09" r="1.84"/></g><path class="cls-22" d="M129,114.46c-6.08,8.06-24.62,34.82-22.16,71.07.57,8.36,2.24,29,16.8,49A87.42,87.42,0,0,0,144.77,255c-7.6-9.44-28.28-37.69-29.45-78.87A130.73,130.73,0,0,1,129,114.46Z" transform="translate(-0.05 0)"/></svg>