<svg id="Layer_1" data-name="Layer 1" xmlns="http://www.w3.org/2000/svg" viewBox="0 0 485.19 485.13"><defs><style>.cls-1{fill:#c9c9c9;}.cls-1,.cls-3{stroke:#565656;}.cls-1,.cls-10,.cls-2,.cls-3,.cls-5,.cls-6,.cls-7,.cls-8,.cls-9{stroke-miterlimit:10;}.cls-1,.cls-3,.cls-7{stroke-width:9px;}.cls-2,.cls-7{fill:#fff;}.cls-2{stroke:#070808;}.cls-2,.cls-8{stroke-width:8px;}.cls-3{fill:none;}.cls-4{opacity:0.35;}.cls-5{fill:#371a45;}.cls-10,.cls-5,.cls-8,.cls-9{stroke:#231f20;}.cls-6{stroke:#000;}.cls-7{stroke:#fff;}.cls-8{fill:#585669;}.cls-10{fill:#111a28;}</style></defs><title>astroicon</title><circle class="cls-1" cx="242.57" cy="242.57" r="238.07"/><path class="cls-2" d="M463.43,421.9a119.78,119.78,0,0,0-13.77-54.55,117.48,117.48,0,0,0-36.61-41.28c-61.58-43.28-170.47-42.9-231.46.67a113.8,113.8,0,0,0-35.85,40.92A115.31,115.31,0,0,0,133.29,423c12.24,11.67,71.67,65.82,164.35,65.88C391.52,488.93,451.48,433.44,463.43,421.9Z" transform="translate(-55.07 -8.23)"/><circle class="cls-3" cx="242.62" cy="242.57" r="238.07"/><g class="cls-4"><path class="cls-5" d="M480.73,171l1.09,14.51A33.15,33.15,0,0,1,451.23,221a3.16,3.16,0,0,1-3.38-2.92L446,194a3.16,3.16,0,0,0,3,1.65l2.16-.16A33.12,33.12,0,0,0,480.73,171Z" transform="translate(-55.07 -8.23)"/></g><path class="cls-6" d="M451,225.07a7.22,7.22,0,0,1-7.19-6.68L437,127.65a7.22,7.22,0,0,1,6.67-7.74,37.2,37.2,0,0,1,39.86,34.33l2.31,30.94a37.24,37.24,0,0,1-34.32,39.87A5.15,5.15,0,0,1,451,225.07ZM445.19,128l6.64,88.91a29.12,29.12,0,0,0,25.94-31.08l-2.31-30.94A29.08,29.08,0,0,0,445.19,128Z" transform="translate(-55.07 -8.23)"/><g class="cls-4"><path class="cls-5" d="M152.76,214.82,154.64,240a3.17,3.17,0,0,1-2.92,3.39,33.12,33.12,0,0,1-35.51-30.58l-1-13a33.17,33.17,0,0,0,31.56,17.17l3.31-.25A3.2,3.2,0,0,0,152.76,214.82Z" transform="translate(-55.07 -8.23)"/></g><circle class="cls-7" cx="242.8" cy="175.44" r="152.51"/><path class="cls-5" d="M149.19,247.53a37.19,37.19,0,0,1-37-34.43l-2.32-30.94a37.25,37.25,0,0,1,34.33-39.87,7.21,7.21,0,0,1,7.74,6.66l6.77,90.74a7.23,7.23,0,0,1-6.66,7.74C151.08,247.5,150.13,247.53,149.19,247.53Zm-5.31-97.07a29.13,29.13,0,0,0-25.94,31.09l2.31,30.94a29.08,29.08,0,0,0,30.27,26.89Z" transform="translate(-55.07 -8.23)"/><path class="cls-8" d="M452.45,187.1a139,139,0,0,1-25.16,82.3c-12.3,17.71-63.64,49.26-127.72,51-59.42,1.64-114.09-29-127-46.27a139.09,139.09,0,0,1-28.22-81.31c-1.5-80.28,66.86-114.85,152-116.44S451,106.82,452.45,187.1Z" transform="translate(-55.07 -8.23)"/><path class="cls-9" d="M297.86,342.79A159.14,159.14,0,0,1,138.75,184.24C138.44,96.5,209.57,24.86,297.3,24.55h.59A159.1,159.1,0,0,1,457,183.1h0A159.12,159.12,0,0,1,298.44,342.79Zm0-310.12h-.56C214.07,33,146.58,101,146.87,184.21a151,151,0,1,0,302-1.08h0a151,151,0,0,0-151-150.46Z" transform="translate(-55.07 -8.23)"/><g class="cls-4"><path class="cls-10" d="M419.72,116c18.36,16.88,29.36,40.43,29.69,71.57a136.27,136.27,0,0,1-24.9,79.71c-12,17.2-61.8,48.07-123.64,50.28a183.23,183.23,0,0,1-61.46-8.84c76-4.34,136.63-42.22,151.51-63.55a172.86,172.86,0,0,0,31.62-101.16A151.09,151.09,0,0,0,419.72,116Z" transform="translate(-55.07 -8.23)"/></g><path class="cls-9" d="M154.64,128.24a4.07,4.07,0,0,1-3.33-6.39C177.79,81.37,230.16,57.45,295,56.24c64.34-1.21,117.57,20,146,58.09a4.06,4.06,0,0,1-5.7,5.73l-.44-.34-.25-.37c-26.78-36.11-77.62-56.14-139.43-55C233,65.52,183,88.12,158.06,126.38l-.22.29A4,4,0,0,1,154.64,128.24Zm-.27-4.27.27.21Z" transform="translate(-55.07 -8.23)"/></svg>