<svg id="Layer_1" data-name="Layer 1" xmlns="http://www.w3.org/2000/svg" viewBox="0 0 543.66 543.66"><defs><style>.cls-1{fill:#4c63ae;stroke:#000;stroke-width:9px;}.cls-1,.cls-14,.cls-2,.cls-20,.cls-4,.cls-5,.cls-6,.cls-7{stroke-miterlimit:10;}.cls-2,.cls-20,.cls-21{fill:#fff;}.cls-14,.cls-2,.cls-4,.cls-5,.cls-6,.cls-7{stroke:#361a42;}.cls-2,.cls-6{stroke-width:5px;}.cls-3,.cls-7{fill:#999;}.cls-3{opacity:0.35;}.cls-4{fill:#f15a2d;}.cls-14,.cls-4,.cls-7{stroke-width:6px;}.cls-5{fill:#9d9a9a;stroke-width:7px;}.cls-6{fill:#727373;}.cls-8{fill:#f8aa98;}.cls-9{fill:#b9aebe;}.cls-10{fill:#a39f9f;}.cls-11{fill:#dcdbdb;}.cls-12{fill:#d3d3d3;}.cls-13{fill:#707071;}.cls-14{fill:#678085;}.cls-15{fill:#767575;}.cls-16{fill:#d33f27;}.cls-17{fill:#ed9223;}.cls-18{fill:#c15127;opacity:0.35;}.cls-19{fill:none;}.cls-20{stroke:#371945;}.cls-22{fill:#d2d2d1;}</style></defs><title>RocketIcon</title><circle class="cls-1" cx="271.83" cy="271.83" r="267.33"/><path class="cls-2" d="M459.16,240.37c2.28,28.34,6,119.37-53.23,209.85-65.14,99.47-162,130.56-187.6,137.9a167.49,167.49,0,0,1-88.67-85.71,336.88,336.88,0,0,1,36.1-95.48C178.06,385.19,223,308.26,319,266.47,374.91,242.11,426.36,239.18,459.16,240.37Z" transform="translate(-16.55 -147.41)"/><path class="cls-3" d="M133.34,503.22c7,10,19,23.93,37.89,32.24,43.17,19,89.59-5.86,117.31-20.73,78.27-42,116.35-116,132.29-153.86q4.2,5.11,8.5,11c2.2,3,4.25,6,6.16,8.91a313.83,313.83,0,0,1-26.26,54.39,332.05,332.05,0,0,1-60.25,72c-49.62,44.7-103.35,65.3-136.31,75a153.66,153.66,0,0,1-79.33-78.94Z" transform="translate(-16.55 -147.41)"/><path class="cls-4" d="M439.71,376.79a395.11,395.11,0,0,0-112.9-109.88,263.74,263.74,0,0,1,132.35-26.54,352.8,352.8,0,0,1-19.45,136.42Z" transform="translate(-16.55 -147.41)"/><path class="cls-5" d="M220,657.75c5,3.62,29.36-14,42.33-39.58,9.84-19.44,10.47-38.33,9.81-49.74-5.95,2.92-12.39,5.8-19.29,8.55a272.52,272.52,0,0,1-34.56,11.14,81.34,81.34,0,0,1,7.46,34.19C225.56,643.4,216.47,655.13,220,657.75Z" transform="translate(-16.55 -147.41)"/><path class="cls-4" d="M214.63,589.11a91.45,91.45,0,0,1-12,10.68c-1.91,1.42-8,5.91-11.72,7.36C177,612.52,156.1,590.91,143.64,578c-11.42-11.83-33.5-34.69-27.33-48.26,1.14-2.52,2.76-3.64,6.19-9.94a87,87,0,0,0,7.16-17.38,188.84,188.84,0,0,0,85,86.7Z" transform="translate(-16.55 -147.41)"/><path class="cls-6" d="M138.28,582a78.34,78.34,0,0,1,20.46-48.21C179,512,204.81,509.68,210.49,509.32a79.25,79.25,0,0,1-18.55,45.54C171.63,578.56,144.06,581.48,138.28,582Z" transform="translate(-16.55 -147.41)"/><path class="cls-7" d="M57.78,509.64c-4-4.5,11.39-30.09,35.15-46.07,19.7-13.25,40-16.46,52.53-17.27-3,7.71-5.92,15.87-8.71,24.47-3.82,11.74-6.95,23-9.52,33.61a81.21,81.21,0,0,0-34.77-4C71.55,502.7,60.67,512.89,57.78,509.64Z" transform="translate(-16.55 -147.41)"/><path class="cls-8" d="M123.17,566.1" transform="translate(-16.55 -147.41)"/><path class="cls-9" d="M337.65,446c-5.87,2.06-31.79,10.15-54.62-6.07-26.29-18.68-23.77-52-23.63-53.47.67,4.29,4.81,28.16,26.83,43.26,26.4,18.1,55.58,7.88,58.82,6.68a66.35,66.35,0,0,0,27-18.94C369.12,422.43,358.63,438.65,337.65,446Z" transform="translate(-16.55 -147.41)"/><circle class="cls-7" cx="305.23" cy="232.46" r="59.92"/><path class="cls-10" d="M142.86,577.36l63.26-63.54a74.47,74.47,0,0,0-17.42,4.47,75.48,75.48,0,0,0-24.79,15.94C147.55,550.28,143.84,570.26,142.86,577.36Z" transform="translate(-16.55 -147.41)"/><path class="cls-11" d="M206.13,513.66c-.07-.16-1.13.11-3.29.48a74.37,74.37,0,0,0-10.52,2.58,73.55,73.55,0,0,0-23.58,12.81,72.27,72.27,0,0,0-17.92,21.75c-6.56,12.17-9.57,25.69-8.21,26.23,1.87.73,6.42-25.18,28.41-43.59C186.24,521.17,206.6,514.72,206.13,513.66Z" transform="translate(-16.55 -147.41)"/><path class="cls-12" d="M141,449.69l-2.48,6.51a108.71,108.71,0,0,0-15.38,3.26c-5.82,1.68-17.24,5.07-28.45,12.92a81.13,81.13,0,0,0-26.2,31.36A46.23,46.23,0,0,1,63.63,506c-1.23.49-2.41.9-3.52,1.24a16.17,16.17,0,0,1,1-3.54c.17-.42.39-.86.8-1.74.53-1.12,1-2,1.29-2.65a87,87,0,0,1,10.94-15.9A95.92,95.92,0,0,1,99.1,463,107.57,107.57,0,0,1,141,449.69Z" transform="translate(-16.55 -147.41)"/><path class="cls-13" d="M228.57,614.52a226.38,226.38,0,0,0,40.63-38.25c0-1,0-1.95-.05-2.92a272.61,272.61,0,0,1-25.36,10.71c-7.17,2.6-14,4.75-20.49,6.52a87.93,87.93,0,0,1,3.63,12.51A89.46,89.46,0,0,1,228.57,614.52Z" transform="translate(-16.55 -147.41)"/><circle class="cls-14" cx="304.64" cy="233.26" r="45.05"/><path class="cls-15" d="M282.74,420.93a53.38,53.38,0,0,0,12.59,9.24c19.61,10.34,39.3,4.85,42.19,4s25.06-7.81,35.66-30.89a58.14,58.14,0,0,0,4.39-33.4c-2.27,25.26-16.8,47-37.82,55.88-11.34,4.78-27.86,7.19-44,1.6A57.72,57.72,0,0,1,282.74,420.93Z" transform="translate(-16.55 -147.41)"/><path class="cls-16" d="M122,537.91c1.07-3.68,2.84-5.77,8.15-12.8.87-1.15,2.39-3.16,4.31-5.74q-2.08-3.54-4.15-7.08c-.6,1.46-1.4,3.28-2.4,5.36a60.16,60.16,0,0,1-3.29,6.28c-2.29,3.69-3.3,5.07-3.3,5.07a9.83,9.83,0,0,0-1.87,3.33,9.54,9.54,0,0,0-.36,2.85,13.12,13.12,0,0,0,.53,3.48,23,23,0,0,0,1.58,4.34A20.31,20.31,0,0,1,122,537.91Z" transform="translate(-16.55 -147.41)"/><path class="cls-16" d="M184.78,600.7c2.39-.42,4.12-1.45,11.91-8.25,2.44-2.13,4.53-4,6.2-5.52l5.3,3.09a89.34,89.34,0,0,1-8.06,6.87,88.41,88.41,0,0,1-9.59,6.31,13.15,13.15,0,0,1-4.72.92,14.89,14.89,0,0,1-5.42-1.1,27.28,27.28,0,0,1-6.62-3.41,24.77,24.77,0,0,0,4.08,1A23.5,23.5,0,0,0,184.78,600.7Z" transform="translate(-16.55 -147.41)"/><path class="cls-17" d="M456.36,243.07a266.92,266.92,0,0,0-86.84,10.24,262.24,262.24,0,0,0-36.92,13.84l7.18,4.6A232.29,232.29,0,0,1,370.93,259a226.86,226.86,0,0,1,85.48-10.85C456.39,246.47,456.37,244.77,456.36,243.07Z" transform="translate(-16.55 -147.41)"/><path class="cls-18" d="M424.32,347.05q6.94,10.26,13.87,20.53a339.33,339.33,0,0,0,15.71-74.65,337.49,337.49,0,0,0,1.18-47.21l-8.38-.38a294.16,294.16,0,0,1-22.38,101.71Z" transform="translate(-16.55 -147.41)"/><line class="cls-19" x1="267.34" y1="301.79" x2="266.66" y2="302.47"/><line class="cls-19" x1="294.83" y1="302.96" x2="294.83" y2="302.96"/><path class="cls-20" d="M292.51,389.84" transform="translate(-16.55 -147.41)"/><path class="cls-21" d="M321.46,434.62" transform="translate(-16.55 -147.41)"/><path class="cls-22" d="M377.08,368.08a53.49,53.49,0,0,0-5.1-14.77C361.75,333.65,342.43,327,339.57,326s-25.05-7.84-46.9,5.1a58.19,58.19,0,0,0-22.62,25C286.3,336.6,310.62,327,333,331.66c12,2.52,27,9.94,37.1,23.73A57.87,57.87,0,0,1,377.08,368.08Z" transform="translate(-16.55 -147.41)"/></svg>